<?xml version="1.0" encoding="UTF-8"?>
<svg id="a" xmlns="http://www.w3.org/2000/svg" viewBox="0 0 1280 800">
<defs><style>.b{opacity:.15}.b,.c{fill:#fff}.c{opacity:.2}</style></defs>
<path class="b" d="m1280,0H0v664.35c13.96-13.22,12.5-12.94,25.74-17.35,14.01-4.67,35.28-14.82,48.97-19.33,13.69-4.51,49.13-21.91,57.18-28.35s7.57-1.61,15.62-9.66c8.05-8.05,13.69-10.63,16.27-15.14,2.58-4.51,7.41-5.64,8.54-11.6s7.09-2.26,7.57-6.93,1.29-14.66,6.77-24.32,2.42-11.28.97-12.24c-1.45-.97-13.53-7.09-13.85-8.54s.32,0-2.58,0-5.32-2.9-6.28-.64c-.97,2.26.32,3.54,1.93,7.09,1.61,3.54-.48,7.09-.32,8.7s3.7,3.54,2.42,5.32c-1.29,1.77-1.93,4.99-2.9,2.09-.97-2.9-.64-5.64-1.29-6.6s-3.87-2.09-6.44-2.09-6.77.97-7.09-.64c-.32-1.61-.16-2.9-2.09-1.61s-5.48,1.61-5.15,6.44c.32,4.83,2.9,6.93,4.03,7.25s3.06,1.77,3.06,3.87-5.8-.97-7.41-1.29-2.26,4.03-.97,5.64,11.28,3.87,12.89,8.38c1.61,4.51,5.48,8.54.97,13.53s-9.99,9.99-13.21,4.99-1.77-6.77,0-8.38c1.77-1.61.16-2.58-.97-4.03-1.13-1.45-5.32-4.67-5.32-4.67l.32-24.48s-1.77-.32-2.74.97c-.97,1.29-1.29.16-1.77-1.29-.48-1.45-.16-.48-1.45-2.58s-2.09-3.06-1.29-3.22,2.42-.32,3.38,1.29c.97,1.61,3.87,4.19,1.93,2.09-1.93-2.09,0-2.58-.97-6.6-.97-4.03-3.54-5.8-3.87-6.44s-1.93-2.9-2.26-3.38-2.42-2.42-.97-2.9,4.83.16,5.64,1.13.64,3.38,1.61,4.83c.97,1.45.16.48.97,1.45.81.97-.32-1.61.48-4.19.81-2.58,3.06-10.47,3.06-10.47l-2.58-7.89-3.7-.81,4.35-5.64,4.03,8.21,3.54-3.38-4.03-7.41c2.26-2.26,5.32,0,5.32,0l3.54,8.54,3.7-3.87-3.22-14.34,4.19-1.45,3.06,11.11,1.77-1.13-1.77-11.76h2.58s1.93,8.21,2.74,8.38,1.77-.48,3.54-1.45c1.77-.97,9.02-6.28,9.02-6.28l-5.64-7.41s5.48-4.35,6.6-4.83,0-2.09,4.03-4.83c4.03-2.74,7.08-3.54,9.58-6.28,2.5-2.74-.24-4.99,2.34-7.25,2.58-2.26,4.51-5.32,6.77-9.18,2.26-3.87,2.42-6.44,4.03-8.7,1.61-2.26-1.13-.81,1.45-4.03,2.58-3.22,4.51-4.35,5.15-8.7.64-4.35,1.45-21.26,4.83-25.29,3.38-4.03,5.32-8.7,5.32-8.7h3.87l3.54-5.32s-2.58.48-4.03-1.29c-1.45-1.77,1.93-3.87,2.9-3.87s3.06-2.09,9.34-4.67c6.28-2.58,9.18-5.64,10.79-7.73,1.61-2.09,4.35-4.51,12.08-4.99s17.72-1.13,19.81-2.74c2.09-1.61,13.37-3.54,15.3-3.54s4.67.32,7.41,0c2.74-.32,11.44,1.13,13.85.81s10.79-.74,12.4-.85,3.22.44,5.8,0c2.58-.44,4.19-.92,5.32-.76s4.83-2.26,9.83-1.61,4.03-3.22,9.34-4.51c5.32-1.29,5.8-1.93,9.5-3.87,3.7-1.93,9.34-5.15,14.98-5.96s7.09-2.9,9.02-3.22c1.93-.32,2.26-.97,4.51-3.06,2.26-2.09,4.51-5.64,8.86-6.44,4.35-.81,15.46-5.15,24.64-4.67-5.96-6.44-6.12-6.6-7.89-8.05-1.77-1.45-9.66-8.38-9.66-8.38l-.16-1.77s3.38,2.42,5.15,2.26c1.77-.16,5.96-.97,8.05-1.61,2.09-.64,1.93,1.77,1.93,3.38s1.13.16,2.58-1.13,5.48-.48,4.03.97c-1.45,1.45-6.77,1.29-5.8,4.03.97,2.74,0,7.89,7.41,8.05s10.63-3.38,16.59-1.29,15.46.97,24.32,3.38c8.86,2.42,8.7,2.09,10.95,1.45s5.8.16,8.7.97c2.9.81,12.56,2.58,14.01,3.06,1.45.48,39.62,8.05,78.76,26.9,39.14,18.85,53.96,32.54,64.75,53.15-2.09,2.09-4.03,5.15-3.54,5.8.48.64,1.77,1.06,1.77,1.06,0,0,1.13,7,1.77,7.48s2.58-3.06,3.7-3.38c1.13-.32,2.58,2.74,3.22,3.7.64.97,7.09,8.13,8.38,9.91,1.29,1.77.97,2.82,2.01,2.26,1.05-.56,4.11-4.11,5.88-3.79,1.77.32,4.91,2.34,6.28,4.99,1.37,2.66,0,3.22,1.37,3.38s3.06.48,3.3,1.69c.24,1.21,3.87,6.52,3.3,10.39-.56,3.87-.16,6.6.4,7.17.56.56,5.23,2.82,5.32,4.67.08,1.85.24,4.03,1.45,4.67,1.21.64,2.34-.64,2.34.56s1.45,4.67,1.45,4.67c0,0,1.85,1.93,1.61,4.03-.24,2.09-.16,3.3.72,2.98s2.66-1.29,3.87-1.37c1.21-.08,1.77,1.21,2.9-.16,1.13-1.37.97-.81,1.69-2.17s-3.46-2.66-2.5-3.95,2.42-2.42,3.54-2.42,2.58,1.29,2.42,2.09.56,1.13,1.29-.64c.72-1.77,2.09-2.26,1.93-.64-.16,1.61-1.02,4.91.01,4.91s.63-2.74,1.44-3.38c.81-.64,2.74-1.29,2.58.56-.16,1.85-1.77,2.5-.16,1.85,1.61-.64,3.62-2.9,3.7-1.05.08,1.85,2.09,4.03,3.3,3.38s4.35-2.26,4.27-1.45c-.08.81-.56.16-1.45,2.34-.89,2.17.48,2.26-2.34,2.5-2.82.24-3.14-1.21-4.35,1.37-1.21,2.58-.48,4.43-1.77,3.95s-2.34-1.69-2.98-1.77c-.64-.08-1.29-.48-.81.48s1.77.56,1.53,3.3c-.24,2.74-.68,2.74.04,3.83.72,1.09,1.21,1.69.28,2.46-.93.77-4.35,3.02-4.99,4.79-.64,1.77-5.68,5.23-4.55,6.72,1.13,1.49,2.17.97,1.57,2.62s-1.01,3.1-.04,4.95.4,2.26,1.53,2.3.48,1.73.89,1.73,1.37-2.17,1.73-2.05,1.65.97,2.26,1.25c.6.28,1.25.44.52,1.53-.72,1.09-2.46.24-1.77,1.69s.85,1.41.04,1.61c-.81.2-1.73.2-.81.68.93.48,2.9.72,1.69,1.45-1.21.72-1.57,3.74-3.74,4.79-2.17,1.05-1.89,3.58-4.87,3.14-2.98-.44-3.79-.93-3.95-1.93s-.6-.89-2.05-.6c-1.45.28-2.38,1.45-2.66.12-.28-1.33-1.97-1.93-.4-3.22,1.57-1.29,1.65-3.02,1.45-4.11-.2-1.09-.52-4.43-2.46-4.59-1.93-.16-2.3-.4-3.42,1.73s-1.73,3.42-1.21,4.31c.52.89.04,1.49-.64,2.01-.68.52,0,2.62-2.17,2.13s-3.87-1.21-3.34-2.74c.52-1.53-1.33-3.54-.77-6.6.56-3.06.04.28-2.21.24-2.26-.04-5.15,2.7-5.68,4.03-.52,1.33-.32,2.94-1.69,2.21s.16-1.61-1.93-1.41c-2.09.2.4,1.49-3.91,1.37-4.31-.12-2.5-1.13-4.99-.24-2.5.89-2.13,2.66-3.06,2.54-.93-.12-2.9-.4-2.9-.4,0,0-4.63-.48-6.08,1.37-1.45,1.85-1.21,3.58-2.42,4.43-1.21.85-1.85,1.65-3.1.4s-1.49-2.01-2.26-1.13c-.77.89-2.62,2.01-2.54,3.02.08,1.01,1.01,2.01-1.17,1.97s-2.78,1.49-3.22-.2c-.44-1.69-1.17-2.38-1.21-3.62-.04-1.25-.68-2.66,0-3.26.68-.6,1.17-1.65.12-1.57-1.05.08-1.17,1.09-3.1,2.13-1.93,1.05-2.34,1.49-3.5.97-1.17-.52-1.89-.28-1.89-1.77s1.45-1.73-.4-2.01c-1.85-.28-1.69,1.81-4.23.52-2.54-1.29-2.78-1.89-3.66-1.89s-.93,2.01-1.81.36c-.89-1.65-2.13-1.77-2.13-2.94s.89-2.94-.44-2.94-.89,1.97-2.21,1.93c-1.33-.04-3.74-.89-4.07-1.13-.32-.24-1.77-.56-2.3-.44-.52.12.04-2.09-1.33-2.13-1.37-.04.32,2.34-1.65,2.13-1.97-.2-2.13-.81-4.31.36-2.17,1.17-1.05.85-2.62.68-1.57-.16-2.5-1.61-3.54-.16-1.05,1.45-.72,1.89-1.77,3.95-1.05,2.05-.36,3.58-2.09,2.7-1.73-.89-2.3-2.13-4.67-2.34-2.38-.2-1.89.24-3.06-.64-1.17-.89-.56-1.37-2.17-1.21-1.61.16-3.79.28-5.4-.12-1.61-.4-2.09.77-2.38-.85-.28-1.61-2.3-1.01-2.09-2.05.2-1.05.97-1.81-.32-1.61-1.29.2-2.13.64-3.38.64s-1.61.64-2.17-.72c-.56-1.37-1.25-1.29-2.34-1.13-1.09.16-1.37-.48-1.97-.44-.6.04-2.13.48-2.21,1.29-.08.81-.28,1.65-1.37,1.25-1.09-.4-2.74-.77-2.9-1.97s-1.45-2.17-.77-3.22c.68-1.05.52-.68,1.61-1.81,1.09-1.13,1.85-1.97,3.38-3.42,1.53-1.45.32-3.5-1.97-1.73-2.3,1.77-1.97,2.7-2.7,4.31-.72,1.61-.36,1.77-1.65,2.66-1.29.89-2.26,2.54-2.26,4.31s1.85,4.03-.28,6.24-4.67,3.95-5.28,6.81c-.6,2.86.4,5.23-1.49,6.93-1.89,1.69-1.09,5.72-.16,7.53.93,1.81,2.66,6.72,2.09,8.66-.56,1.93,1.89,4.07-.77,5.48-2.66,1.41-5.64,5.19-7.81,8.74-2.17,3.54-1.33,6.4-2.26,9.46-.93,3.06,1.05,5.92-1.89,7.73-2.94,1.81-3.14,3.74-3.02,6.28s.68,3.02,2.46,3.62c1.77.6,2.46.85,2.46,2.5s1.69.68,2.38.16.28-2.09,1.69-.93c1.41,1.17,2.62.36,1.37,2.13-1.25,1.77-1.77,2.62-1.05,4.55.72,1.93,1.37,1.73,1.69,2.34.32.6,1.01,2.86.64,3.83s.4,3.54-1.25,4.19-2.05,1.89-2.94.72-.85-1.09-1.25-1.65c-.4-.56.28-.16-1.61.6-1.89.77-1.53.81-1.61-.28-.08-1.09-.64-1.89-1.29-1.73s-2.34-.04-2.98-.24c-.64-.2-.32-1.01-2.26-1.05-1.93-.04-2.74-.12-2.78-1.13s-1.49-2.3-.12-3.14c1.37-.85,1.45-1.41,1.37-.85-.08.56.56,1.05.81.44.24-.6,1.73-3.3,2.05-3.22.32.08,1.37-.81.24-1.73-1.13-.93-1.13-.28-3.02.4-1.89.68-1.45.2-2.34,1.37-.89,1.17-1.45,1.21-1.25,2.38.2,1.17,0,1.21-.77,2.74-.77,1.53-.93,4.75-.44,8.54s.32,6.2.68,7.97c.36,1.77-.04.81,2.13,4.67,2.17,3.87,2.01,4.15,1.77,7.25-.24,3.1-.81,4.11-.16,6.77s.97,4.31,2.62,7.05c1.65,2.74,3.83,1.41,5.88,4.63,2.05,3.22,5.68,4.71,5.88,7.69.2,2.98.81,5.23,1.13,6.77.32,1.53.6,3.95,1.23,4.95.62,1.01,1.15,1.91,1.19,3.7s-1.41,9.7.4,11.82,6.04,5.98,6.4,7.31-.91,1.99.79,3.26c1.69,1.27,2.66,1.51,1.93,3.02-.72,1.51.48.97.97,2.11s1.03,1.57.54,2.78c-.48,1.21-.42,1.51.36,2.11.79.6,4.47,1.33,1.33,1.57-3.14.24.18,1.81,1.15,2.23.97.42,3.62.85,1.87,1.81-1.75.97-5.32-1.93-3.56,0,1.75,1.93,3.5.66,3.81,2.78s.85,2.36.18,2.66-1.51,0-.91,1.27c.6,1.27-.12,1.45-.91,2.9-.79,1.45-.18,1.99-1.75,2.11-1.57.12-2.42-1.93-2.36,0,.06,1.93-2.54,2.42-2.72,1.81s-.79-3.2-1.27-1.09c-.48,2.11-2.66,1.09-1.39,2.72,1.27,1.63,1.81,2.17.97,3.38-.85,1.21-3.2,5.19-4.89,6.7-1.69,1.51-1.33,2.42-4.71,3.87-3.38,1.45-4.41,1.75-4.47,1.39-.06-.36-.18-.06,0-1.63.18-1.57,1.09-.72,1.87-.79.79-.06.42-2.3-.54-2.3s-2.48.36-2.78,2.05c-.3,1.69.24,1.15-1.63.48-1.87-.66-2.54-1.57-3.68-.24s-2.48,2.9-3.2,6.16-.42,4.47-4.89,6.58c-4.47,2.11-2.72,3.2-4.65,4.77-1.93,1.57-3.56-.97-3.14,3.81.42,4.77-.42,5.74.66,9.42,1.09,3.68,1.51,2.84.42,4.11-1.09,1.27-4.11,1.27-2.42,2.17,1.69.91,4.41.24,3.5,2.54-.91,2.3,1.63,5.19,0,7.43-1.63,2.23-1.81,1.87-3.81,2.36-1.99.48-3.68.85-2.9,2.6.79,1.75,1.09-.12,1.99,3.14.91,3.26,1.33,2.66,2.9,3.02,1.57.36,1.87.3,1.93,1.81.06,1.51-1.93,2.42.97,3.02,2.9.6,4.29,1.57,5.13.66.85-.91.48-1.93,2.23-2.36,1.75-.42,2.9-.91,3.2.48.3,1.39.66.91.18,3.14-.48,2.23,0,2.42.66,2.9s.91.72.72,1.51c-.02.1-.08.23-.15.37h1.37c1.01-1.1,1.15-1.9,3.13-1.33,1.44.41,3.01.8,4.09,1.33h456.98c.74-1.06,1.21-2.2,2.31-1.55.91.54,1.7,1.01,2.44,1.55h11.69c.36-1.03.44-1.72,1.29-3.57.85-1.85,1.29-.72.6-3.18s-2.05-1.69-.85-2.78c1.21-1.09,3.1,1.29,3.74-1.61.64-2.9-1.17-2.66.32-4.23,1.49-1.57,2.5.16,1.97-2.3-.52-2.46-1.61-1.77-.68-2.94.93-1.17,1.17-1.41,3.38-1.49,2.21-.08,4.39.36,3.91,1.13-.48.77,1.05,3.22,1.45,1.09.4-2.13.85-3.58,2.13-3.7,1.29-.12,2.5-.08,5.88-.52,3.38-.44,3.7.72,5.36-1.09s1.65-2.46,4.71-3.58c3.06-1.13,5.92-3.18,8.3-4.55s5.23-2.7,6-3.62,2.5-5.28,2.46-6.2c-.04-.93-1.01-1.61.77-3.42,1.77-1.81,2.74-.89,2.62-3.34s1.29-2.82,1.85-3.26c.56-.44,1.09-1.37,2.17-2.98,1.09-1.61,1.49-1.53,2.05-1.53s-.2,2.3.97.64,2.21-.32,2.05-3.54c-.16-3.22-1.01-4.75-2.13-4.99-1.13-.24.64-.93-3.26-.89-3.91.04-5.11,2.05-6.08-.04-.97-2.09-2.09-1.25-1.21-4.91s2.17-3.46,2.38-6.2c.2-2.74-1.69-2.82,1.01-4.23,2.7-1.41,3.1,1.05,4.75-2.9,1.65-3.95,1.77-6.08,2.94-6.89,1.17-.81,1.53-2.46,1.33-4.11-.2-1.65-1.29-1.49-1.21-3.3.08-1.81.68-3.5.81-6.32.12-2.82-1.45-6.4-.12-7.69s2.86-3.54,3.58-5.15,1.17-3.22,3.06-4.31c1.89-1.09,1.09-2.01,1.49-3.74.4-1.73,2.01-1.37,2.74-1.65.72-.28,1.45-.2.81-1.69s-3.79-.12-3.83-3.02c-.04-2.9-1.41-2.46.36-3.66,1.77-1.21,3.32-1.65,3.71-2.54.39-.89-.21-1.09-1.18-1.37s-5.64-3.14-5.68-4.83-1.49-1.93.16-3.74c1.65-1.81,3.5-.48,3.42-1.81-.08-1.33-1.33.64-.68-1.77.64-2.42.85-.85,1.01-3.34s.72-1.49-.16-3.38c-.89-1.89-.24-.93.12-3.83.36-2.9-.44-3.5-.89-3.91-.44-.4-1.73.04-1.13-1.65.6-1.69,1.85-.93,2.05-2.5.2-1.57,1.33-1.45-.28-2.21-1.61-.77-1.53-2.5-3.46-1.01s-1.89,3.66-3.14,3.46c-1.25-.2-1.33-.44-2.98.2s-3.66-.81-4.51.89c-.85,1.69-.4,1.61-2.38,1.89s-3.54.28-2.66-.68c.89-.97,1.33-1.37.12-1.85s-.68-1.17-1.09-1.49c-.4-.32-2.05-.32-2.46-.36-.4-.04-.48,1.69-1.21-1.53-.72-3.22-3.06-3.62-2.13-6.44s.32-1.81,1.85-2.9c1.53-1.09,2.7-.16,1.77-2.42-.93-2.26-3.99-2.21-4.31-3.74s.64-1.89,1.89-1.97c1.25-.08.12-1.65-.85-1.89-.97-.24-2.34,1.37-1.61-.93.72-2.3,3.02-1.73,1.73-2.7-1.29-.97-3.02-1.01-4.55-2.62-1.53-1.61-1.65-2.46-4.47-3.14s-.72-1.69-3.87-2.46c-3.14-.77-4.47-.6-4.47-.6,0,0-4.31.04-6.85.48-2.54.44-3.62.85-4.03,1.25-.4.4.89.93-1.85,2.34-2.74,1.41-1.81,3.66-4.27,1.57-2.46-2.09-1.69-2.94-4.99-4.43s-1.77,1.09-3.54-1.61-3.87-2.94-4.91-4.63c-1.05-1.69-2.98-4.51-2.82-7.21.16-2.7-1.41-2.3.48-4.39,1.89-2.09,4.11-1.05,2.82-3.1-1.29-2.05-.85-.6-1.41-2.98-.56-2.38.97-5.8-2.17-8.01s-3.3.16-4.79-2.74c-1.49-2.9-2.9-2.74-3.99-3.58-1.09-.85-5.32-5.07-4.91-6.85.4-1.77,1.17-1.69-.04-2.74-1.21-1.05-1.89-2.01-1.53-3.79.36-1.77-.81-4.83,1.17-6.77,1.97-1.93,3.1-4.47,5.44-5.36s4.35-1.21,4.27,0c-.08,1.21-1.53,3.34-.24,3.1,1.29-.24.85-4.15,3.46-2.34,2.62,1.81,1.05,2.46,4.23,1.89,3.18-.56,5.56-.16,5.92-2.9.36-2.74,1.09-1.97-.81-4.43s-2.66-1.65-2.54-4.99c.12-3.34-.85-6.6-.12-7.57s.28-2.26-.16-4.35c-.44-2.09-.28-4.91,1.97-7.33,2.26-2.42.32-3.34-.16-5.52s.16-2.17-.2-4.59c-.36-2.42-.72-2.26-.32-4.51.4-2.26,1.13-2.46.85-5.44s.97-7.45,1.05-9.42c.08-1.97-.08-.77.64-3.42s.56-3.22-.2-4.55c-.77-1.33-5.88-2.9-6.2-4.71s-1.33-2.62-2.9-2.78c-1.57-.16-3.14-.28-4.31.97-1.17,1.25-1.65,1.37-2.94,3.87s-.44,5.44-4.79,3.95-5.64-.89-5.88-2.82c-.24-1.93-1.17-2.01-4.47-1.57s-4.59,3.1-6.24,1.09c-1.65-2.01-3.34-5.15-3.34-5.92s-1.97-2.94-2.58-3.14c-.6-.2-.72-2.3-.72-3.95s1.57.08,1.73-1.57-1.25-2.26-.48-2.78c.77-.52,1.69-1.69,1.89-1.21.2.48.93,1.93,1.09.97.16-.97.12-1.61-.56-3.1s.04-1.41,1.21-1.73c1.17-.32.93,1.13,1.69-.6.77-1.73.52-1.45.81-3.74.28-2.3.85-6.24,2.26-7.45,1.41-1.21,1.77-2.09,2.82-2.26s.2-1.61.77-2.3c.56-.68,1.21.28,1.93.64.72.36,1.45.56.04-1.85-1.41-2.42-1.57.12-2.13-2.01-.56-2.13-.77-1.53-.12-2.78.64-1.25,1.17-2.21-.2-2.21s-2.5.16-2.7-1.85c-.2-2.01-.77-2.58-1.45-3.62s-2.6-4.94-2.2-5.79c.39-.85.54-1.78,3.05-3.68,2.51-1.9,5.65-3.5,6.77-5.19,1.12-1.69,1.87-1.27,1.42-2.75-.45-1.48-.09-.88-.79-2.05-.69-1.18-.6-6.01-.45-8.15s1.09-3.26.57-3.78c-.51-.51-1.12,3.68-2.39,3.81-1.27.12-2.93-1.03-2.57,1.18.36,2.2,1.57,2.11.51,3.05-1.06.94-.79.33-1.84-.54-1.06-.88-2.81-1.42-2.48-3.08s.76-2.81.72-4.68.97-1.69,1.27-3.02c.3-1.33.39-3.14,1.87-4.35,1.48-1.21.09-2.54,2.11-2.51,2.02.03,1.96,1.06,3.47-.97,1.51-2.02,6.07-9.3,6.98-10.81.91-1.51,1.36-1.03,1.15-2.54-.21-1.51-1-2.2-.6-3.41.39-1.21-.82-1.93,1-3.87s3.14-4.71,5.86-5.13c2.72-.42,4.59-3.14,6.58-3.02s1.33.97,2.3-1.39c.97-2.36,2.6-6.52,4.83-9,2.23-2.48,1.81-2.23,4.11-4.77,2.3-2.54,1.33-2.84,1.63-4.23.3-1.39,1.69-3.08,4.11-4.11,2.42-1.03,2.23-.06,2.36-3.38s-.79-1.63.48-3.5c1.27-1.87,1.03-.42.6-2.96-.42-2.54-2.23-3.2-.54-5.5,1.69-2.3.18-2.66,1.99-4.41,1.81-1.75,7.03-4.29,7.19-6.06.16-1.77,1.29-.64,1.05-3.14-.24-2.5-1.69-1.93,2.01-3.87,3.7-1.93,3.87-4.27,7.57-3.79,3.7.48,2.42,3.22,4.91,1.29s2.09-2.42,4.91-1.77,3.14.64,5.88.81,2.17-1.05,3.3,1.45c1.13,2.5,1.53,1.77,3.38,2.34s1.69-.4,2.42,1.85c.72,2.26,1.53,2.01,3.22,2.34,1.69.32,1.77.16,2.17,1.45.4,1.29,2.5-.08,3.62-.16,1.13-.08,1.37-.56,1.85.89.48,1.45,1.13-.56,2.42,2.01,1.29,2.58,1.13,1.29,1.29,2.98.16,1.69-.4,2.42,1.05,1.53,1.45-.89,2.82-3.22,2.9-1.37.08,1.85-2.17,2.17,0,2.5s2.9.32,3.3-.48,1.05-1.13.97-2.42-3.14-2.09-.08-1.29c3.06.81,2.66,1.05,3.62,1.69.97.64,2.42,2.17,3.62.97,1.21-1.21.48.89,1.21-1.21s.72-2.9-.97-2.98c-1.69-.08-1.93.48-2.58-.24-.64-.72-2.01-.72-1.53-2.34.48-1.61,2.09-.97.4-2.34-1.69-1.37-2.17-3.38-3.7-3.14-1.53.24-3.06,2.17-4.11,1.29-1.05-.89-1.29,1.21-3.38.32-2.09-.89-2.66.16-2.98-2.26-.32-2.42-.16-3.14-1.85-3.62-1.69-.48.32.81-3.7-1.45s-4.51-1.13-4.59-2.98-1.45-1.29.16-2.26c1.61-.97,2.58-.16,3.87.81s2.26,5.48,1.29.97c-.97-4.51-.56-4.67-1.21-6.77-.64-2.09-1.13-2.9-1.21-4.75-.08-1.85,1.13-2.34-1.21-2.74-2.34-.4-3.06.89-3.46-1.37-.4-2.26.16-3.46.72-4.11s5.07-2.58,5.4-4.35c.32-1.77,1.77-.89.32-3.87s-2.26-3.14-2.09-4.19c.16-1.05.56-1.37-.32-3.3-.89-1.93-1.85-2.17-3.62-3.79-1.77-1.61-1.61.56-2.98-2.82-1.37-3.38-1.61-2.98-3.38-5.4-1.77-2.42-1.45-3.14-.81-5.8s2.66-4.59,5.07-6.68c2.42-2.09,2.42-1.13,1.77-3.87-.64-2.74-2.26-1.85-2.98-3.46-.72-1.61-.08-4.11-.16-7.65-.08-3.54.4-2.26-.4-5.23s-1.13-3.14.32-4.03c1.45-.89,4.35-3.7,4.67-5.48.32-1.77.16-3.79.16-3.79,0,0,.72-3.22,1.61-4.91.89-1.69,0-2.66-.24-2.9-.24-.24-2.66-1.61-1.61-3.3,1.05-1.69,1.13-3.38.72-3.62-.4-.24-2.34-.24-.97-2.17,1.37-1.93,2.34-3.54,1.93-4.19-.4-.64-1.13-1.85-.72-4.03.4-2.17,1.45-3.38,1.05-4.03-.4-.64-.24.89-1.21-1.53-.97-2.42-2.17-3.14-1.29-4.67s2.9-6.12,2.42-6.52c-.48-.4-1.69,2.98-.56-1.21,1.13-4.19.64-4.59,1.93-5.56s2.01-1.21,1.45-2.17c-.56-.97-1.45-.89.72-1.93,2.17-1.05,2.17,1.45,2.42,2.34.24.89.32,2.9.48-1.77.16-4.67-2.82-2.42.16-4.67,2.98-2.26,4.19-.97,4.03-3.06-.16-2.09,1.05-3.79,4.27-4.83,3.22-1.05,4.11-3.62,6.85-3.14s-1.66-2.82,6.1-7.33c7.75-4.51,6.71-3.06,9.28-6.85,2.58-3.79,2.34-4.27,4.43-5.4s6.85-2.66,13.13-6.93c6.28-4.27,3.95-.56,9.58-5.72,5.64-5.15,5.56-4.91,7.81-7.65,2.26-2.74-.64.16,4.99-4.35s5.72-4.59,10.71-10.07-.24-3.3,8.86-6.68c9.1-3.38,6.32-4.83,11.52-5.32,5.19-.48,1.93,3.14,7.37-1.69s18.12-8.34,22.71-10.39c4.59-2.05,12.44-6.52,15.22-8.46,2.78-1.93-.36,2.42.6,2.42s.72-4.59,6.16-5.56,26.46-6.89,36.12-9.06c2.94-.66,5.09-1.12,6.67-1.44V0Z"/>
<path class="c" d="m632.3,594.61c1.73-1.01.89-1.45,1.93-1.73,1.05-.28,1.73.16,4.91-.68,3.18-.85,2.38-.89,4.99-1.65,2.62-.77,2.42.04,3.46,0,1.05-.04,1.01-.77.89-1.81-.12-1.05.68-1.25,1.77-2.98,1.09-1.73,1.09-2.13,2.78-3.34,1.69-1.21,1.13-1.57,2.98-1.77,1.85-.2.52-.2,1.21-1.85.68-1.65,1.25-1.21,3.54-2.17s.93-.4,4.15-.04c3.22.36,1.13.44,3.3-.56s3.79-3.14,5.44-4.03c1.65-.89,2.62-1.73,4.63-2.26,2.01-.52,2.98-.68,4.67-1.01,1.69-.32,2.58-1.25,4.19-1.53,1.61-.28,1.17-.52,1.89-.81.72-.28,1.45-1.65,1.85-3.26.4-1.61,1.45-1.21,2.58-2.62,1.13-1.41.81-.2,3.5-1.01s1.41-1.93,2.17-3.02c.77-1.09.36-.79-.2-1.51-.56-.72.18-1.01.93-2.38.74-1.37,1.13-2.09,2.11-2.19.99-.1.06.16.66-1.53.6-1.69-.3-.5,1.79-.56,2.09-.06.81-.1.99-1.23s-.6-1.13,1.23-1.19,1.41-.81,2.3-1.69-.2-2.5.12-3.6.89-.32,1.93-.22c1.05.1,1.19,2.11,2.6,2.26,1.41.14.1-2.19,1.51-2.11,1.41.08,1.71,1.89,2.76,2.28,1.05.38.72-.3,1.45-2.09.72-1.79.72-.66,1.84-2.23,1.12-1.57.12-1.45,1.12-2.02s2.3-.07,3.9,0c1.6.06,1.81-.45,2.69-.21.88.24,1.24-.76,1.66-1.15.42-.39,1.36-.6,3.47-1.6,0,0-.12-.18-.21-.91-.09-.72-.39-.76-1.27-1.66-.88-.91-.63-.82-1.06-2.3-.42-1.48-.27-1-1.36-2.14-1.09-1.15-1.39-1.36-1.96-1.69-.57-.33-.91-1.33-1.06-1.93s.18-.69.79-1.42c.6-.72-.36-1.9.48-1.96.85-.06,1.6,0,1.84-1.15.24-1.15,1.09-1.75,1.09-1.75,0,0,1.21-.91,2.48-1.21,1.27-.3-.69-.09,1.63-2.2,2.33-2.11,0-1.57,2.3-2.42s1.27-.94,1.3-2.08c.03-1.15,1.3-2.11.97-2.69-.33-.57.27-2.45.42-3.65s.15-1.27-.48-1.57c-.63-.3-1.48-1.48-1.72-2.39-.24-.91-1.81.39-2.3.54s-1.84.15-2.39-1.36c-.54-1.51-.91-1.48-2.33-2.42-1.42-.94-2.27-3.59-3.59-4.77s4.08-5.01,5.35-6.19c1.27-1.18.72-1.06,2.42-.91,1.69.15,1.3,1.03,2.93,0s2.75-1.06,1.78-1.84-.03-3.56.12-6.04-.39-1.78-.72-3.44-1.48-2.63-1.36-3.32c.12-.69-.17-1.92-.43-2.91-.26-.99-.77-.93-1.17-2.21-.4-1.29-.14-1.17-1.03-2.26-.89-1.09-.83-.56-.4-1.61.42-1.05.1-.83.04-1.61-.06-.79.2-1.05.62-1.73.42-.68.04-2.58.04-2.58,0,0,.22-1.07.93-1.69.71-.62-.61-1.95-1.29-3.08s-.68-1.25-.36-2.98c.32-1.73-.56-.36-1.77-2.38-1.21-2.01-1.29-2.21.48-2.17,1.77.04,2.54-.93,3.34-.89s1.06-.53,2.08-1.8c1.03-1.27.82-1.75,2.99-2.3,0,0,.06-.33-.15-2.23-.21-1.9,1.51-2.08,1.6-3.41.09-1.33.6-.06,1.75-.36s.94-1.78.21-3.08c-.72-1.3.85-1.24.97-2.72s.51-.76,2.45-.94c1.93-.18.39-1.21.76-1.84.36-.63,1-.48,2.72-.36s2.11.39,3.08-.33c.97-.72.69-.79.69-1.39s1.24-2.33,1.99-3.29c.76-.97,1-1.81,0-3.47,0,0-2.2.12-3.26.21-2.59.22-2.72-.03-3.96-.6-1.24-.57-1.3-.76-3.59-.82-2.3-.06-1.9-1.93-3.65-2.23-1.75-.3-.82-1.78-.57-3.02s1.75-.66,3.44-1.84.76-.21,2.99-.45c2.23-.24,1.54-1.15,1.51-1.75-.03-.6-.66-1.36-2.36-2.46-1.69-1.1-1.48-.26-3.56-.84-2.08-.57-3.9,1.18-4.92,2.96-1.03,1.78-1.72.82-2.81.36-1.09-.45-.72-.85-3.53-3.26.03,1-1.24,1.66-2.23,2.63s-.42,1.78-2.45,2.08c-2.02.3-2.2-.12-2.48,1-.27,1.12-1.3,1.54-3.5,3.87s-1.3,1-1.87.76c-.57-.24-3.41-.72-4.2-.18-.79.54-1.72-.27-5.16.82-3.44,1.09-2.57-.82-3.71-1.36s-.12-1.39-.97-2.11c-.85-.72-1.15-1.81-1.09-2.72.06-.91.3-1.93-.66-3.5-.97-1.57-.66-1.57.36-3.38,1.03-1.81-.6-2.23-.06-3.2s.91-1.39,1.21-2.48c.3-1.09-1.81-1.57-2.9-2.11-1.09-.54-.36-3.62-.66-4.41-.3-.79-1.75-.79-1.45-3.68.3-2.9.66-4.17-1.09-5.19-1.75-1.03-1.33-3.68-1.21-5.38.12-1.69.54-2.17,1.15-1.69.6.48,2.48,0,4.17-1.21,1.69-1.21,1.33-2.36,2.05-4.53.72-2.17-.36-2.72-.66-5.26-.3-2.54-1.33-1.33-2.23-3.56-.91-2.23,2.17-1.99,4.05-2.96,1.87-.97.79-2.96.66-4.23-.12-1.27-1.93-.54-4.17-2.84-2.23-2.3-1.63-2.3-1.93-7.55-.3-5.26.36-2.84,1.69-6.46s-.24-2.11.6-4.71c.85-2.6,1.33-1.03-.48-3.02s1.03-2.78,2.48-3.5,4.53-1.75,5.86-2.6.18-.91-.72-2.23c-.91-1.33-.48-2.78-.66-4.59s-1.03-.91-1.45-2.6c-.42-1.69-1.39-2.78-1.81-2.54-.42.24-.91.97-4.59.6-3.68-.36-1.87-2.11-3.68-5.56s-1.39-2.17-1.93-3.74c-.54-1.57-1.81-2.23-3.62-2.66-1.81-.42-1.03-1.33-2.11-1.93-1.09-.6-1.81.72-3.62,1.51s-1.39,1.09-2.54.3-1.69-2.9-3.68-4.89c-1.99-1.99-3.14-3.44-4.47-4.17-1.33-.72-1.09-1.27-1.33-3.32-.24-2.05.91-.97-1.81-2.11-2.72-1.15-1.03-2.54-2.11-3.5-1.09-.97-.66-1.09-1.45-3.02s-1.21-.72-1.87-2.3c-.66-1.57-.54-3.56-.48-7.19.06-3.62-2.21-3.72-2.75-4.77s-.51-3.99-.73-4.74c-.22-.76-.2-1.36-.02-2.84s-.82-1.75-2.11-1.78c-1.3-.03-1.36-.82-1.42-1.63-.06-.82-.06-1.24-1.96-2.17-1.9-.94-1.39-2.33-2.48-2.63-1.09-.3-1.36-1.48-1.69-3.05-.33-1.57-.94-.6-2.33-.88-1.39-.27-.42-.91-.91-1.96-.48-1.06-.8.14-1.57-.6-.77-.74-1.93-2.05-3.17-2.72-1.24-.66-1.54-.45-1.9-1.57-.36-1.12-1.27-2.57-3.47-2.96-2.2-.39-1.78-1-2.3-1.9-.51-.91-.48-1.72-1.87-1.6-1.39.12-.91-1.06-1.66-2.27-.76-1.21-1.57-2.36-2.39-3.2s-.76-.27-.57-2.3-1.42-3.96-1.51-5.98c-.09-2.02-1-3.02-1.51-3.56-.51-.54-1.48-1.12-1.36-2.27.12-1.15-.39-2.51-1.06-3.02s-1.54-1.06-1.3-2.36c.24-1.3-.06-2.48-.71-3.16s-.38-.51-.46-1.31c-.08-.8-.18-1.6-.72-2.05-.54-.45-1.6-.6-1.36-2.84.24-2.23-.18-1.51-.85-1.93s-1.87-.91-2.48-2.42c-.6-1.51-1.51-1.39-3.2-1.39s-1.33-.54-3.5-2.17-1.45-2.42-2.42-3.08c-.97-.66-.06-1.33.6-2.48.66-1.15-.91-.72-1.09-1.87-.18-1.15-1.45-1.51-2.72-1.57-1.27-.06-1.21-1.33-3.2-1.51-1.99-.18-.85-.79-1.87-1.33-1.03-.54-.36-1.39-.85-2.48-.48-1.09-.79-.48-.54-1.81.24-1.33-1.33-1.99-2.6-3.5-1.27-1.51-.79-1.87-1.45-4.05s-1.51-1.45-2.48-1.69c-.97-.24-.72.6-1.57,1.63s-.66,1.75-1.33,3.62c-.66,1.87-2.36,2.54-2.84,3.02s-.54.85-2.11,2.6c-1.57,1.75.12,1.15-.3,1.45-.42.3-.24.42-.54,1.63-.3,1.21-.36,1.33-1.51,1.75-1.15.42-1.15.12-2.78.85-1.63.72-1.27,0-2.72.6-1.45.6-1.75,2.66-2.23,3.81s-.6,1.93-1.51,1.93-1.75,1.09-3.62,1.33c-1.87.24-2.3,1.57-3.87,3.56-1.57,1.99-3.08,2.6-6.58,6.52-3.5,3.93-3.74,2.6-4.05,3.32s-.06,2.11-.97,2.6c-.91.48-1.09-.3-1.99.42-.91.72-.66,2.05-3.5,1.69-2.84-.36-1.39.66-3.56,2.11s-2.6,1.45-4.65,4.53c-2.05,3.08-2.42,2.23-3.87,3.32-1.45,1.09-.6.97-3.14,2.11-2.54,1.15-.36,2.05-.48,3.38-.12,1.33-.24,1.93-1.33,3.68-1.09,1.75-1.15,1.81-1.75,4.65-.6,2.84,2.48,1.69,1.57,3.62-.91,1.93-.54.79-.85,2.6-.3,1.81.12,2.3-1.33,5.92s.36,3.62-2.23,5.56c-2.6,1.93.12,2.66-2.59,5.86-2.71,3.2-2.97,1.75-3.27,3.68-.3,1.93.85.85,4.47.91,3.62.06,1.57.42,2.17.48.6.06,1.27-.48,1.33-1.51.06-1.03,0-.85,2.17-1.09,2.17-.24,2.96.72,4.05,1.39s1.39.48,2.6.6c1.21.12,1.63-.3,3.14-1.75,1.51-1.45,2.54-1.57,2.6-.85.06.72.24,5.26-.36,5.32-.6.06-1.45-.06-1.57.97-.12,1.03,0,1.87-.66,1.63-.66-.24-1.27,1.21-1.21,2.54.06,1.33.36,2.11-.91,2.78s-.97,1.33-1.03,2.11c-.06.79-.91,3.32-2.84,6.52-1.93,3.2-2.11,8.7-2.72,9.72s1.33,1.45,2.05,2.23c.72.79.48.97-1.33,2.66-1.81,1.69-.79,2.17-.97,3.87s.91,1.15.97,2.78c.06,1.63-1.81,1.21-2.23,1.21s-1.45,1.27-1.69,2.48c-.24,1.21-3.08,4.11-3.93,5.19-.85,1.09-.91.6-1.33.18s-1.27-1.03-1.93-.97c-.66.06-1.69-1.93-2.05-2.92-.36-.98-4.95.2-6.64.02s-2.36,1.15-2.6,1.81c-.24.66.06,2.23-.42,3.81-.48,1.57-1.03.79-1.03,2.3s-.54,1.27-1.21,2.36c-.54.88-1.03,1.8-2.09,5.59.22.06.42.11.54.15,1.45.48,39.62,8.05,78.76,26.9,39.14,18.85,53.96,32.54,64.75,53.15-2.09,2.09-4.03,5.15-3.54,5.8.48.64,1.77,1.06,1.77,1.06,0,0,1.13,7,1.77,7.48s2.58-3.06,3.7-3.38c1.13-.32,2.58,2.74,3.22,3.7.64.97,7.09,8.13,8.38,9.91,1.29,1.77.97,2.82,2.01,2.26,1.05-.56,4.11-4.11,5.88-3.79,1.77.32,4.91,2.34,6.28,4.99,1.37,2.66,0,3.22,1.37,3.38s3.06.48,3.3,1.69c.24,1.21,3.87,6.52,3.3,10.39-.56,3.87-.16,6.6.4,7.17.56.56,5.23,2.82,5.32,4.67.08,1.85.24,4.03,1.45,4.67,1.21.64,2.34-.64,2.34.56s1.45,4.67,1.45,4.67c0,0,1.85,1.93,1.61,4.03-.24,2.09-.16,3.3.72,2.98s2.66-1.29,3.87-1.37c1.21-.08,1.77,1.21,2.9-.16,1.13-1.37.97-.81,1.69-2.17s-3.46-2.66-2.5-3.95,2.42-2.42,3.54-2.42,2.58,1.29,2.42,2.09.56,1.13,1.29-.64c.72-1.77,2.09-2.26,1.93-.64-.16,1.61-1.02,4.91.01,4.91s.63-2.74,1.44-3.38c.81-.64,2.74-1.29,2.58.56-.16,1.85-1.77,2.5-.16,1.85,1.61-.64,3.62-2.9,3.7-1.05.08,1.85,2.09,4.03,3.3,3.38s4.35-2.26,4.27-1.45c-.08.81-.56.16-1.45,2.34-.89,2.17.48,2.26-2.34,2.5-2.82.24-3.14-1.21-4.35,1.37-1.21,2.58-.48,4.43-1.77,3.95s-2.34-1.69-2.98-1.77c-.64-.08-1.29-.48-.81.48s1.77.56,1.53,3.3c-.24,2.74-.68,2.74.04,3.83.72,1.09,1.21,1.69.28,2.46-.93.77-4.35,3.02-4.99,4.79-.64,1.77-5.68,5.23-4.55,6.72,1.13,1.49,2.17.97,1.57,2.62s-1.01,3.1-.04,4.95.4,2.26,1.53,2.3.48,1.73.89,1.73,1.37-2.17,1.73-2.05,1.65.97,2.26,1.25c.6.28,1.25.44.52,1.53-.72,1.09-2.46.24-1.77,1.69s.85,1.41.04,1.61c-.81.2-1.73.2-.81.68.93.48,2.9.72,1.69,1.45-1.21.72-1.57,3.74-3.74,4.79-2.17,1.05-1.89,3.58-4.87,3.14-2.98-.44-3.79-.93-3.95-1.93s-.6-.89-2.05-.6c-1.45.28-2.38,1.45-2.66.12-.28-1.33-1.97-1.93-.4-3.22,1.57-1.29,1.65-3.02,1.45-4.11-.2-1.09-.52-4.43-2.46-4.59-1.93-.16-2.3-.4-3.42,1.73s-1.73,3.42-1.21,4.31c.52.89.04,1.49-.64,2.01-.68.52,0,2.62-2.17,2.13s-3.87-1.21-3.34-2.74c.52-1.53-1.33-3.54-.77-6.6.56-3.06.04.28-2.21.24-2.26-.04-5.15,2.7-5.68,4.03-.52,1.33-.32,2.94-1.69,2.21s.16-1.61-1.93-1.41c-2.09.2.4,1.49-3.91,1.37-4.31-.12-2.5-1.13-4.99-.24-2.5.89-2.13,2.66-3.06,2.54-.93-.12-2.9-.4-2.9-.4,0,0-4.63-.48-6.08,1.37-1.45,1.85-1.21,3.58-2.42,4.43-1.21.85-1.85,1.65-3.1.4s-1.49-2.01-2.26-1.13c-.77.89-2.62,2.01-2.54,3.02.08,1.01,1.01,2.01-1.17,1.97s-2.78,1.49-3.22-.2c-.44-1.69-1.17-2.38-1.21-3.62-.04-1.25-.68-2.66,0-3.26.68-.6,1.17-1.65.12-1.57-1.05.08-1.17,1.09-3.1,2.13-1.93,1.05-2.34,1.49-3.5.97-1.17-.52-1.89-.28-1.89-1.77s1.45-1.73-.4-2.01c-1.85-.28-1.69,1.81-4.23.52-2.54-1.29-2.78-1.89-3.66-1.89s-.93,2.01-1.81.36c-.89-1.65-2.13-1.77-2.13-2.94s.89-2.94-.44-2.94-.89,1.97-2.21,1.93c-1.33-.04-3.74-.89-4.07-1.13-.32-.24-1.77-.56-2.3-.44-.52.12.04-2.09-1.33-2.13-1.37-.04.32,2.34-1.65,2.13-1.97-.2-2.13-.81-4.31.36-2.17,1.17-1.05.85-2.62.68-1.57-.16-2.5-1.61-3.54-.16-1.05,1.45-.72,1.89-1.77,3.95-1.05,2.05-.36,3.58-2.09,2.7-1.73-.89-2.3-2.13-4.67-2.34-2.38-.2-1.89.24-3.06-.64-1.17-.89-.56-1.37-2.17-1.21-1.61.16-3.79.28-5.4-.12-1.61-.4-2.09.77-2.38-.85-.28-1.61-2.3-1.01-2.09-2.05.2-1.05.97-1.81-.32-1.61-1.29.2-2.13.64-3.38.64s-1.61.64-2.17-.72c-.56-1.37-1.25-1.29-2.34-1.13-1.09.16-1.37-.48-1.97-.44-.6.04-2.13.48-2.21,1.29-.08.81-.28,1.65-1.37,1.25-1.09-.4-2.74-.77-2.9-1.97s-1.45-2.17-.77-3.22c.68-1.05.52-.68,1.61-1.81,1.09-1.13,1.85-1.97,3.38-3.42,1.53-1.45.32-3.5-1.97-1.73-2.3,1.77-1.97,2.7-2.7,4.31-.72,1.61-.36,1.77-1.65,2.66-1.29.89-2.26,2.54-2.26,4.31s1.85,4.03-.28,6.24-4.67,3.95-5.28,6.81c-.6,2.86.4,5.23-1.49,6.93-1.89,1.69-1.09,5.72-.16,7.53.93,1.81,2.66,6.72,2.09,8.66-.56,1.93,1.89,4.07-.77,5.48-2.66,1.41-5.64,5.19-7.81,8.74-2.17,3.54-1.33,6.4-2.26,9.46-.93,3.06,1.05,5.92-1.89,7.73-2.94,1.81-3.14,3.74-3.02,6.28s.68,3.02,2.46,3.62c1.77.6,2.46.85,2.46,2.5s1.69.68,2.38.16.28-2.09,1.69-.93c1.41,1.17,2.62.36,1.37,2.13-1.25,1.77-1.77,2.62-1.05,4.55.72,1.93,1.37,1.73,1.69,2.34.32.6,1.01,2.86.64,3.83s.4,3.54-1.25,4.19-2.05,1.89-2.94.72-.85-1.09-1.25-1.65c-.4-.56.28-.16-1.61.6-1.89.77-1.53.81-1.61-.28-.08-1.09-.64-1.89-1.29-1.73s-2.34-.04-2.98-.24c-.64-.2-.32-1.01-2.26-1.05-1.93-.04-2.74-.12-2.78-1.13s-1.49-2.3-.12-3.14c1.37-.85,1.45-1.41,1.37-.85-.08.56.56,1.05.81.44.24-.6,1.73-3.3,2.05-3.22.32.08,1.37-.81.24-1.73-1.13-.93-1.13-.28-3.02.4-1.89.68-1.45.2-2.34,1.37-.89,1.17-1.45,1.21-1.25,2.38.2,1.17,0,1.21-.77,2.74-.77,1.53-.93,4.75-.44,8.54s.32,6.2.68,7.97c.36,1.77-.04.81,2.13,4.67,2.17,3.87,2.01,4.15,1.77,7.25-.24,3.1-.81,4.11-.16,6.77s.97,4.31,2.62,7.05c1.65,2.74,3.83,1.41,5.88,4.63,2.05,3.22,5.68,4.71,5.88,7.69.19,2.81.73,4.96,1.07,6.48h13.95c1.65,0,1.81.6,3.14-.6,1.33-1.21.04-.28,2.13-.28s.72-.48,1.65-2.21c.93-1.73.16-1.77,2.98-1.65,2.82.12,1.25.4,3.06-1.05s2.66-2.42,4.11-3.22c1.45-.81,2.62-1.49,3.54-4.27.93-2.78.85-2.05,1.17-2.13.32-.08.97.2,1.21,1.13.24.93,1.57.24,3.14.12,1.57-.12.68-.77,1.65-1.05s1.41.24,2.01,1.05c.6.81.85,1.13,1.05,1.37.2.24,2.01.32,3.1.28,1.09-.04,1.17-.08,2.98,1.37,1.81,1.45.89-.24,2.46-.16,1.57.08,1.41.04,2.01-1.93.6-1.97,1.01-1.61,1.33-2.58.32-.97,1.33-.85,2.01-.93.68-.08,1.25.32,2.34,1.01,1.09.68.48-.04,2.62-.12,2.13-.08.97-.44,2.13-1.17,1.17-.72,3.18,0,3.7.77.52.77,1.61.81,2.58.89.97.08-.08-.48,1.89-.68s.97.93,2.05.85c1.09-.08,1.25,1.09,1.17,2.17-.08,1.09-.44,1.13,1.61.85,2.05-.28,1.33,1.17,3.18,1.17s1.81.2,2.98.24,1.97.89,3.18,1.93c1.21,1.05.85,1.09,2.17.93s1.33-1.61,1.13-2.94c-.2-1.33-.52-1.69-1.17-2.58-.64-.89-.68-1.85-1.01-3.18s.28-2.34,1.05-4.03c.77-1.69.44-2.86,1.81-3.95,1.37-1.09.28-2.13.12-3.5-.16-1.37-.04-.36-1.05-2.05s-.72-1.37-1.77-2.62c-1.05-1.25-.08-1.89-.08-2.7s-1.13-.16-1.21-1.25c-.08-1.09.97-.04.93-1.29-.04-1.25-.81-1.05,1.56-3.14,2.36-2.09.82-.72,1.22-2.66.4-1.93-.2-1.13-1.05-2.17-.85-1.05-.56-.89-.48-2.86.08-1.97-1.33-2.13-1.97-2.94-.64-.81.08-.56,1.21-1.41s.36-.77-.72-1.21c-1.09-.44-.52-1.53-.52-1.53,0,0,.12-1.81-.28-2.5-.4-.68-.04-1.25,1.69-2.26Z"/>
</svg>
