<?xml version="1.0" encoding="UTF-8" standalone="yes"?>
<svg version="1.2" baseProfile="tiny-ps" viewBox="0 0 500 500" xml:space="preserve" xmlns="http://www.w3.org/2000/svg">
<title>umineco.org</title>
<rect fill="#50CBFD" width="500" height="500"/>
<rect x="295.64" y="466.16" fill="#FFD561" width="20.17" height="33.84"/>
<rect x="263.5" y="466.16" fill="#FFD561" width="20.17" height="33.84"/>
<path fill="#FFFFFF" d="M372.86,440.3c-71.73,0-142.22-55.65-142.22-101.41s63.11-81.38,47.28-96.45l0,0c-15.18-11.88-25.81-26.14-25.81-42.62c0-38.75,10.17-32.41,10.17-68.59s-15.97-69.77-69.77-69.77s-55.24,41.64-84.92,41.64c-50.91,0-53.38,15.46-63.69,35.25c12.78-7.83,44.11-10.72,63.69-10.72s48.02,12.37,48.02,28.44s-44.93,42.87-44.93,150.46s92.13,163.66,173.14,163.66c74.82,0,134.5-15.44,157.06-24.32c14.13-5.57,31.31-11.44,50.9-15.82c-40.94,6.03-47.19,10.26-118.92,10.26V440.3z"/>
<path fill="#FFFFFF" d="M281.8,245.36c0,0,0.08,0.05,0.11,0.08C281.87,245.41,281.83,245.39,281.8,245.36z"/>
<path fill="#FFD561" d="M122.12,129.5L122.12,129.5c-9.07-5.55,1.45-7.75,17.83-10.74c-7.73,0.62-36.48-5.77-36.48-5.77s1.75-5.77,7.31-10.06h-0.01c-1.02,0.11-2.08,0.17-3.18,0.17c-50.91,0-53.38,15.46-63.69,35.25c12.78-7.83,44.11-10.72,63.69-10.72c4.52,0,9.52,0.67,14.53,1.88L122.12,129.5z"/>
<path fill="#74726A" d="M500,337.75c-46.41-25.39-95.34-43.5-150.64-60.69c-22.11-6.87-50.93-18.56-71.45-34.62c15.84,15.07-47.28,52.01-47.28,96.45S301.12,440.3,372.85,440.3s78.27-2.48,118.92-10.26c3-0.57,5.72-1.12,8.23-1.64L500,337.75L500,337.75z"/>
</svg>
