<?xml version="1.0" encoding="utf-8"?>
<svg version="1.1" xmlns="http://www.w3.org/2000/svg" xmlns:xlink="http://www.w3.org/1999/xlink" viewBox="0 0 813 600" xml:space="preserve">
<style type="text/css">
.st0{fill:#FFD561;}
.st1{fill:#FFFFFF;}
.st2{fill:#26262C;}
.st3{fill:#74726A;}
</style>
<rect x="279.6" y="515.27" class="st0" width="25.67" height="84.73"/>
<rect x="320.52" y="515.27" class="st0" width="25.67" height="84.73"/>
<path class="st1" d="M418.84,482.35c-91.33,0-181.08-70.86-181.08-129.12c0-56.58,80.36-103.61,60.19-122.81c0,0,0,0,0,0 c-19.32-15.12-32.86-33.29-32.86-54.27c0-49.34,12.95-41.27,12.95-87.33S257.71,0,189.21,0c-68.49,0-70.33,53.01-108.12,53.01 C16.27,53.01,13.12,72.69,0,97.89c16.27-9.97,56.16-13.65,81.09-13.65c24.93,0,61.15,15.75,61.15,36.22 c0,20.47-57.21,54.59-57.21,191.57S202.33,520.4,305.47,520.4c95.26,0,171.25-19.65,199.97-30.97 c17.99-7.09,39.87-14.56,64.8-20.15C518.11,476.96,510.16,482.35,418.84,482.35z"/>
<path class="st1" d="M302.9,234.14c0.05,0.03,0.1,0.07,0.14,0.1C303,234.21,302.95,234.17,302.9,234.14z"/>
<path class="st0" d="M99.59,86.63C99.59,86.63,99.59,86.63,99.59,86.63c-11.55-7.07,1.84-9.87,22.7-13.68 c-9.84,0.79-46.45-7.35-46.45-7.35s2.23-7.35,9.31-12.81l-0.01,0c-1.3,0.14-2.65,0.22-4.04,0.22C16.27,53.01,13.12,72.69,0,97.89 c16.27-9.97,56.16-13.65,81.09-13.65C86.85,84.24,93.21,85.09,99.59,86.63z"/>
<path class="st2" d="M812.36,474.43c-67.65-89.88-172.63-105.94-231.84-122.77c22.79,26.36,30.1,68.81,30.1,68.81l46.87,32.86 c31.65,3.62,42.52,4.83,71.76,16.59c-18.12-18.77-26.82-22.15-55.57-26.98C698.64,441.33,736.65,448.18,812.36,474.43z"/>
<path class="st3" d="M657.49,453.33c0.23-23.87-1.63-54.85-29.34-73.07c-73.34-48.24-149.74-77.94-239.23-105.76 c-28.15-8.75-64.85-23.63-90.97-44.08c20.16,19.19-60.19,66.22-60.19,122.81c0,58.26,89.75,129.12,181.08,129.12 s99.66-3.15,151.41-13.06c22.02-4.22,32.44-7.25,44.8-9.19C623.31,458.81,634.53,453.33,657.49,453.33z"/>
</svg>
